<svg enable-background="new 0 0 425.1 411.7" viewBox="0 0 425.1 411.7" xmlns="http://www.w3.org/2000/svg" xmlns:xlink="http://www.w3.org/1999/xlink"><linearGradient id="a"><stop offset="0" stop-color="#b5288d"/><stop offset="1" stop-color="#460e71"/></linearGradient><linearGradient id="b" gradientTransform="matrix(1 0 0 -1 0 413.72)" gradientUnits="userSpaceOnUse" x1="212.565" x2="212.565" xlink:href="#a" y1="40.5082" y2="437.3582"/><linearGradient id="c" gradientTransform="matrix(.9768 -.2141 -.2141 -.9768 79.5574 333.6182)" gradientUnits="userSpaceOnUse" x1="32.0282" x2="18.5736" xlink:href="#a" y1="218.5778" y2="179.4954"/><linearGradient id="d" gradientTransform="matrix(.9736 .2284 .2284 -.9736 -228.4473 540.9413)" gradientUnits="userSpaceOnUse" x1="424.5056" x2="408.3039" xlink:href="#a" y1="618.6368" y2="571.5751"/><linearGradient id="e" gradientTransform="matrix(.8208 -.5712 -.5712 -.8208 138.6193 44.4689)" gradientUnits="userSpaceOnUse" x1="-97.5024" x2="-108.964" xlink:href="#a" y1="-220.3268" y2="-253.6198"/><linearGradient id="f" gradientTransform="matrix(1 0 0 -1 0 413.72)" gradientUnits="userSpaceOnUse" x1="168.335" x2="168.335" xlink:href="#a" y1="134.45" y2="307.98"/><linearGradient id="g"><stop offset="0" stop-color="#f7f1e1"/><stop offset="1" stop-color="#d1bfef"/></linearGradient><linearGradient id="h" gradientTransform="matrix(1 0 0 -1 0 413.72)" gradientUnits="userSpaceOnUse" x1="295.79" x2="254.5536" xlink:href="#g" y1="228.4274" y2="53.0089"/><linearGradient id="i" gradientTransform="matrix(1 0 0 -1 0 413.72)" gradientUnits="userSpaceOnUse" x1="334.805" x2="334.805" xlink:href="#g" y1="140.8638" y2="10.7916"/><linearGradient id="j" gradientTransform="matrix(1 0 0 -1 0 413.72)" gradientUnits="userSpaceOnUse" x1="331.298" x2="331.8797" xlink:href="#g" y1="105" y2="38.3819"/><linearGradient id="k"><stop offset="0" stop-color="#ffd6ca"/><stop offset="1" stop-color="#f9aa9f"/></linearGradient><linearGradient id="l" gradientTransform="matrix(1 0 0 -1 0 413.72)" gradientUnits="userSpaceOnUse" x1="338.8982" x2="338.8982" xlink:href="#k" y1="131.1388" y2="159.0977"/><linearGradient id="m"><stop offset="0" stop-color="#ffc34a"/><stop offset="1" stop-color="#d66a3f"/></linearGradient><linearGradient id="n" gradientTransform="matrix(1 0 0 -1 0 413.72)" gradientUnits="userSpaceOnUse" x1="301.792" x2="295.3923" xlink:href="#m" y1="149.1024" y2="9.4709"/><linearGradient id="o" gradientTransform="matrix(1 0 0 -1 0 413.72)" gradientUnits="userSpaceOnUse" x1="299.8058" x2="303.7779" xlink:href="#m" y1="6.1232" y2="34.1918"/><linearGradient id="p" gradientTransform="matrix(1 0 0 -1 0 413.72)" gradientUnits="userSpaceOnUse" x1="334.0879" x2="347.9061" xlink:href="#k" y1="154.0741" y2="193.056"/><linearGradient id="q" gradientTransform="matrix(1 0 0 -1 0 413.72)" gradientUnits="userSpaceOnUse" x1="364.3968" x2="357.9968" xlink:href="#m" y1="146.2336" y2="6.5957"/><linearGradient id="r" gradientTransform="matrix(1 0 0 -1 0 413.72)" gradientUnits="userSpaceOnUse" x1="293.3238" x2="290.4147" xlink:href="#g" y1="103.9325" y2="71.3505"/><linearGradient id="s" gradientTransform="matrix(1 0 0 -1 0 413.72)" gradientUnits="userSpaceOnUse" x1="359.34" x2="359.34" xlink:href="#g" y1="101.8819" y2="63.1518"/><linearGradient id="t" gradientTransform="matrix(1 0 0 -1 0 413.72)" gradientUnits="userSpaceOnUse" x1="292.7405" x2="289.8314" xlink:href="#g" y1="103.9844" y2="71.4028"/><linearGradient id="u" gradientTransform="matrix(1 0 0 -1 0 413.72)" gradientUnits="userSpaceOnUse" x1="357.53" x2="357.53" xlink:href="#g" y1="101.8818" y2="63.1517"/><linearGradient id="v" gradientTransform="matrix(1 0 0 -1 0 413.72)" gradientUnits="userSpaceOnUse" x1="353.1284" x2="367.1741" xlink:href="#m" y1="-9.9866" y2="89.27"/><linearGradient id="w"><stop offset="0" stop-color="#c0d7f5"/><stop offset="1" stop-color="#7b8ea6"/></linearGradient><linearGradient id="x" gradientTransform="matrix(1 0 0 -1 0 413.72)" gradientUnits="userSpaceOnUse" x1="258.8246" x2="236.57" xlink:href="#w" y1="82.1778" y2="-29.095"/><linearGradient id="y" gradientTransform="matrix(1 0 0 -1 0 413.72)" gradientUnits="userSpaceOnUse" x1="180.5891" x2="168.9527" xlink:href="#w" y1="120.6135" y2="30.4318"/><linearGradient id="z" gradientTransform="matrix(1 0 0 -1 0 413.72)" gradientUnits="userSpaceOnUse" x1="157.7133" x2="143.4588" xlink:href="#w" y1="78.1996" y2="-5.0001"/><linearGradient id="A" gradientTransform="matrix(1 0 0 -1 0 413.72)" gradientUnits="userSpaceOnUse" x1="164.2131" x2="131.0494" xlink:href="#w" y1="125.8055" y2="51.0418"/><linearGradient id="B" gradientTransform="matrix(1 0 0 -1 0 413.72)" gradientUnits="userSpaceOnUse" x1="326.8144" x2="326.8144" xlink:href="#k" y1="165.9547" y2="239.4822"/><linearGradient id="C" gradientTransform="matrix(1 0 0 -1 0 413.72)" gradientUnits="userSpaceOnUse" x1="318.7002" x2="321.2133" xlink:href="#k" y1="161.3963" y2="179.3466"/><linearGradient id="D" gradientTransform="matrix(1 0 0 -1 0 413.72)" gradientUnits="userSpaceOnUse" x1="349.9758" x2="366.759" xlink:href="#k" y1="180.8606" y2="207.8044"/><linearGradient id="E" gradientTransform="matrix(1 0 0 -1 0 413.72)" gradientUnits="userSpaceOnUse" x1="355.3926" x2="356.6786" xlink:href="#k" y1="180.4655" y2="189.6514"/><linearGradient id="F" gradientTransform="matrix(1 0 0 -1 0 413.72)" gradientUnits="userSpaceOnUse" x1="324.9032" x2="337.2668" xlink:href="#k" y1="163.7553" y2="192.9917"/><linearGradient id="G" gradientTransform="matrix(1 0 0 -1 0 413.72)" gradientUnits="userSpaceOnUse" x1="328.4409" x2="325.8228" xlink:href="#m" y1="241.4517" y2="175.5608"/><linearGradient id="H" gradientTransform="matrix(1 0 0 -1 0 413.72)" gradientUnits="userSpaceOnUse" x1="321.4433" x2="362.2431" xlink:href="#m" y1="204.6624" y2="135.9354"/><linearGradient id="I" gradientTransform="matrix(1 0 0 -1 0 413.72)" gradientUnits="userSpaceOnUse" x1="314.9459" x2="360.7641" xlink:href="#m" y1="231.2994" y2="268.6085"/><linearGradient id="J" gradientTransform="matrix(1 0 0 -1 0 413.72)" gradientUnits="userSpaceOnUse" x1="363.6347" x2="312.7983" xlink:href="#m" y1="183.0852" y2="244.6126"/><linearGradient id="K" gradientTransform="matrix(1 0 0 -1 0 413.72)" gradientUnits="userSpaceOnUse" x1="380.2549" x2="334.4702" xlink:href="#m" y1="182.1335" y2="237.5469"/><linearGradient id="L" gradientTransform="matrix(1 0 0 -1 0 413.72)" gradientUnits="userSpaceOnUse" x1="215.29" x2="215.29" xlink:href="#a" y1="16.2605" y2="23.0645"/><linearGradient id="M"><stop offset="0" stop-color="#a49f28"/><stop offset="1" stop-color="#717b1a"/></linearGradient><linearGradient id="N" gradientTransform="matrix(1 0 0 -1 0 413.72)" gradientUnits="userSpaceOnUse" x1="215.29" x2="215.29" xlink:href="#M" y1="15.7398" y2="18.5608"/><linearGradient id="O" gradientTransform="matrix(1 0 0 -1 0 413.72)" gradientUnits="userSpaceOnUse" x1="78.72" x2="258.94" xlink:href="#a" y1="262.49" y2="262.49"/><linearGradient id="P" gradientTransform="matrix(1 0 0 -1 0 413.72)" gradientUnits="userSpaceOnUse" x1="78.72" x2="258.94" xlink:href="#a" y1="248.165" y2="248.165"/><linearGradient id="Q" gradientTransform="matrix(1 0 0 -1 0 413.72)" gradientUnits="userSpaceOnUse" x1="168.33" x2="168.33" xlink:href="#g" y1="300.5728" y2="158.8949"/><linearGradient id="R" gradientTransform="matrix(1 0 0 -1 0 413.72)" gradientUnits="userSpaceOnUse" x1="78.22" x2="258.44" xlink:href="#a" y1="233.97" y2="233.97"/><linearGradient id="S" gradientTransform="matrix(1 0 0 -1 0 413.72)" gradientUnits="userSpaceOnUse" x1="78.22" x2="258.44" xlink:href="#a" y1="219.84" y2="219.84"/><linearGradient id="T" gradientTransform="matrix(1 0 0 -1 0 413.72)" gradientUnits="userSpaceOnUse" x1="78.22" x2="258.44" xlink:href="#a" y1="205.715" y2="205.715"/><linearGradient id="U" gradientTransform="matrix(1 0 0 -1 0 413.72)" gradientUnits="userSpaceOnUse" x1="78.22" x2="258.44" xlink:href="#a" y1="191.585" y2="191.585"/><linearGradient id="V" gradientTransform="matrix(1 0 0 -1 0 413.72)" gradientUnits="userSpaceOnUse" x1="78.22" x2="258.44" xlink:href="#a" y1="177.455" y2="177.455"/><linearGradient id="W" gradientTransform="matrix(1 0 0 -1 0 413.72)" gradientUnits="userSpaceOnUse" x1="379.58" x2="406.71" xlink:href="#a" y1="204.32" y2="204.32"/><linearGradient id="X" gradientTransform="matrix(1 0 0 -1 0 413.72)" gradientUnits="userSpaceOnUse" x1="242.2158" x2="225.6339" xlink:href="#a" y1="134.4928" y2="85.8383"/><linearGradient id="Y" gradientTransform="matrix(1 0 0 -1 0 413.72)" gradientUnits="userSpaceOnUse" x1="246.41" x2="280.66" xlink:href="#a" y1="343.99" y2="343.99"/><linearGradient id="Z"><stop offset="0" stop-color="#c29bd2"/><stop offset="1" stop-color="#937ebf"/></linearGradient><linearGradient id="aa" gradientTransform="matrix(1 0 0 -1 0 413.72)" gradientUnits="userSpaceOnUse" x1="183.4688" x2="198.1093" xlink:href="#Z" y1="387.2783" y2="278.4302"/><linearGradient id="ab" gradientTransform="matrix(1 0 0 -1 0 413.72)" gradientUnits="userSpaceOnUse" x1="172.32" x2="172.32" xlink:href="#Z" y1="319.2586" y2="380.8512"/><linearGradient id="ac" gradientTransform="matrix(1 0 0 -1 0 413.72)" gradientUnits="userSpaceOnUse" x1="184.82" x2="184.82" xlink:href="#g" y1="304.4222" y2="342.2415"/><linearGradient id="ad" gradientTransform="matrix(-1 0 0 -1 -1110.582 413.72)" gradientUnits="userSpaceOnUse" x1="-1287.2728" x2="-1298.7201" xlink:href="#m" y1="399.7445" y2="347.1647"/><linearGradient id="ae" gradientTransform="matrix(-1 0 0 -1 -1110.582 413.72)" gradientUnits="userSpaceOnUse" x1="-1298.8519" x2="-1292.442" xlink:href="#m" y1="362.805" y2="362.805"/><linearGradient id="af" gradientTransform="matrix(-1 0 0 -1 -1110.582 413.72)" gradientUnits="userSpaceOnUse" x1="-1271.947" x2="-1271.947" xlink:href="#Z" y1="319.1746" y2="364.5419"/><linearGradient id="ag" gradientTransform="matrix(1 0 0 -1 0 413.72)" gradientUnits="userSpaceOnUse" x1="170.185" x2="170.185" xlink:href="#g" y1="304.4224" y2="342.2418"/><linearGradient id="ah" gradientTransform="matrix(.7684 -.64 -.64 -.7684 303.4256 -84.1988)" gradientUnits="userSpaceOnUse" x1="-166.7369" x2="-166.7369" xlink:href="#a" y1="-53.9725" y2="-45.2217"/><linearGradient id="ai" gradientTransform="matrix(.7684 -.64 -.64 -.7684 303.4256 -84.1988)" gradientUnits="userSpaceOnUse" x1="-167.824" x2="-162.9093" xlink:href="#a" y1="-17.2711" y2="-58.227"/><linearGradient id="aj"><stop offset="0" stop-color="#c2ebff"/><stop offset=".1527" stop-color="#b6e8fd"/><stop offset=".4258" stop-color="#98e2f7"/><stop offset=".785" stop-color="#66d7ed"/><stop offset="1" stop-color="#45d0e6"/></linearGradient><linearGradient id="ak" gradientTransform="matrix(.7684 -.64 -.64 -.7684 303.4256 -84.1988)" gradientUnits="userSpaceOnUse" x1="-169.1888" x2="-166.3041" xlink:href="#aj" y1="-5.6689" y2="-29.7081"/><linearGradient id="al" gradientTransform="matrix(.7684 -.64 -.64 -.7684 303.4256 -84.1988)" gradientUnits="userSpaceOnUse" x1="-166.9189" x2="-166.9189" xlink:href="#w" y1="-47.7614" y2="-75.0686"/><linearGradient id="am" gradientTransform="matrix(.7684 -.64 -.64 -.7684 303.4256 -84.1988)" gradientUnits="userSpaceOnUse" x1="-168.8183" x2="-162.0213" xlink:href="#g" y1="-13.2222" y2="-54.7071"/><linearGradient id="an" gradientTransform="matrix(.7684 -.64 -.64 -.7684 303.4256 -84.1988)" gradientUnits="userSpaceOnUse" x1="-169.5922" x2="-164.572" xlink:href="#g" y1="-13.0817" y2="-43.7228"/><linearGradient id="ao" gradientTransform="matrix(1 0 0 -1 0 413.72)" gradientUnits="userSpaceOnUse" x1="370.5586" x2="385.1991" xlink:href="#Z" y1="334.0695" y2="225.2212"/><linearGradient id="ap" gradientTransform="matrix(.9561 -.2929 -.2929 -.9561 161.6091 277.0605)" gradientUnits="userSpaceOnUse" x1="232.9298" x2="284.5588" xlink:href="#M" y1="102.2229" y2="102.2229"/><linearGradient id="aq" gradientTransform="matrix(.9561 -.2929 -.2929 -.9561 161.6091 277.0605)" gradientUnits="userSpaceOnUse" x1="258.7469" x2="258.7469" xlink:href="#M" y1="118.7494" y2="91.5643"/><linearGradient id="ar" gradientTransform="matrix(.9561 -.2929 -.2929 -.9561 161.6091 277.0605)" gradientUnits="userSpaceOnUse" x1="258.7407" x2="258.7407" xlink:href="#M" y1="112.9592" y2="95.3009"/><linearGradient id="as" gradientTransform="matrix(1 0 0 -1 0 413.72)" gradientUnits="userSpaceOnUse" x1="358.56" x2="410.18" xlink:href="#M" y1="303.255" y2="303.255"/><linearGradient id="at" gradientTransform="matrix(1 0 0 -1 0 413.72)" gradientUnits="userSpaceOnUse" x1="384.38" x2="384.38" xlink:href="#M" y1="319.7729" y2="292.5895"/><linearGradient id="au" gradientTransform="matrix(1 0 0 -1 0 413.72)" gradientUnits="userSpaceOnUse" x1="384.37" x2="384.37" xlink:href="#M" y1="313.9832" y2="296.3257"/><linearGradient id="av" gradientTransform="matrix(1 0 0 -1 0 413.72)" gradientUnits="userSpaceOnUse" x1="395.856" x2="382.4924" xlink:href="#m" y1="304.7027" y2="283.4844"/><linearGradient id="aw" gradientTransform="matrix(1 0 0 -1 0 413.72)" gradientUnits="userSpaceOnUse" x1="372.85" x2="401.38" xlink:href="#m" y1="290.25" y2="290.25"/><linearGradient id="ax" gradientTransform="matrix(1 0 0 -1 0 413.72)" gradientUnits="userSpaceOnUse" x1="371.56" x2="402.68" xlink:href="#m" y1="292.81" y2="292.81"/><linearGradient id="ay" gradientTransform="matrix(1 0 0 -1 0 413.72)" gradientUnits="userSpaceOnUse" x1="371.57" x2="402.69" xlink:href="#m" y1="293.355" y2="293.355"/><linearGradient id="az" gradientTransform="matrix(1 0 0 -1 0 413.72)" gradientUnits="userSpaceOnUse" x1="374.17" x2="400.07" xlink:href="#m" y1="293.02" y2="293.02"/><linearGradient id="aA" gradientTransform="matrix(1 0 0 -1 0 413.72)" gradientUnits="userSpaceOnUse" x1="404.4474" x2="391.0839" xlink:href="#m" y1="301.275" y2="280.0569"/><linearGradient id="aB" gradientTransform="matrix(1 0 0 -1 0 413.72)" gradientUnits="userSpaceOnUse" x1="381.44" x2="409.97" xlink:href="#m" y1="286.825" y2="286.825"/><linearGradient id="aC" gradientTransform="matrix(1 0 0 -1 0 413.72)" gradientUnits="userSpaceOnUse" x1="380.15" x2="411.27" xlink:href="#m" y1="289.38" y2="289.38"/><linearGradient id="aD" gradientTransform="matrix(1 0 0 -1 0 413.72)" gradientUnits="userSpaceOnUse" x1="380.16" x2="411.28" xlink:href="#m" y1="289.925" y2="289.925"/><linearGradient id="aE" gradientTransform="matrix(1 0 0 -1 0 413.72)" gradientUnits="userSpaceOnUse" x1="382.76" x2="408.66" xlink:href="#m" y1="289.59" y2="289.59"/><linearGradient id="aF" gradientTransform="matrix(1 0 0 -1 0 413.72)" gradientUnits="userSpaceOnUse" x1="362.7666" x2="349.4029" xlink:href="#m" y1="299.6835" y2="278.4654"/><linearGradient id="aG" gradientTransform="matrix(1 0 0 -1 0 413.72)" gradientUnits="userSpaceOnUse" x1="339.76" x2="368.29" xlink:href="#m" y1="285.23" y2="285.23"/><linearGradient id="aH" gradientTransform="matrix(1 0 0 -1 0 413.72)" gradientUnits="userSpaceOnUse" x1="338.47" x2="369.59" xlink:href="#m" y1="287.79" y2="287.79"/><linearGradient id="aI" gradientTransform="matrix(1 0 0 -1 0 413.72)" gradientUnits="userSpaceOnUse" x1="338.48" x2="369.6" xlink:href="#m" y1="288.335" y2="288.335"/><linearGradient id="aJ" gradientTransform="matrix(1 0 0 -1 0 413.72)" gradientUnits="userSpaceOnUse" x1="341.08" x2="366.98" xlink:href="#m" y1="288" y2="288"/><linearGradient id="aK" gradientTransform="matrix(1 0 0 -1 0 413.72)" gradientUnits="userSpaceOnUse" x1="362.7658" x2="349.4021" xlink:href="#m" y1="304.7022" y2="283.4841"/><linearGradient id="aL" gradientTransform="matrix(1 0 0 -1 0 413.72)" gradientUnits="userSpaceOnUse" x1="339.76" x2="368.29" xlink:href="#m" y1="290.25" y2="290.25"/><linearGradient id="aM" gradientTransform="matrix(1 0 0 -1 0 413.72)" gradientUnits="userSpaceOnUse" x1="338.47" x2="369.59" xlink:href="#m" y1="292.81" y2="292.81"/><linearGradient id="aN" gradientTransform="matrix(1 0 0 -1 0 413.72)" gradientUnits="userSpaceOnUse" x1="338.48" x2="369.6" xlink:href="#m" y1="293.355" y2="293.355"/><linearGradient id="aO" gradientTransform="matrix(1 0 0 -1 0 413.72)" gradientUnits="userSpaceOnUse" x1="341.08" x2="366.98" xlink:href="#m" y1="293.02" y2="293.02"/><linearGradient id="aP" gradientTransform="matrix(1 0 0 -1 0 413.72)" gradientUnits="userSpaceOnUse" x1="362.7672" x2="349.4035" xlink:href="#m" y1="309.7195" y2="288.5014"/><linearGradient id="aQ" gradientTransform="matrix(1 0 0 -1 0 413.72)" gradientUnits="userSpaceOnUse" x1="339.76" x2="368.29" xlink:href="#m" y1="295.27" y2="295.27"/><linearGradient id="aR" gradientTransform="matrix(1 0 0 -1 0 413.72)" gradientUnits="userSpaceOnUse" x1="338.47" x2="369.59" xlink:href="#m" y1="297.83" y2="297.83"/><linearGradient id="aS" gradientTransform="matrix(1 0 0 -1 0 413.72)" gradientUnits="userSpaceOnUse" x1="338.48" x2="369.6" xlink:href="#m" y1="298.365" y2="298.365"/><linearGradient id="aT" gradientTransform="matrix(1 0 0 -1 0 413.72)" gradientUnits="userSpaceOnUse" x1="341.08" x2="366.98" xlink:href="#m" y1="298.04" y2="298.04"/><linearGradient id="aU" gradientTransform="matrix(1 0 0 -1 0 413.72)" gradientUnits="userSpaceOnUse" x1="361.4642" x2="348.1005" xlink:href="#m" y1="314.7396" y2="293.5215"/><linearGradient id="aV" gradientTransform="matrix(1 0 0 -1 0 413.72)" gradientUnits="userSpaceOnUse" x1="338.46" x2="366.99" xlink:href="#m" y1="300.29" y2="300.29"/><linearGradient id="aW" gradientTransform="matrix(1 0 0 -1 0 413.72)" gradientUnits="userSpaceOnUse" x1="337.17" x2="368.29" xlink:href="#m" y1="302.85" y2="302.85"/><linearGradient id="aX" gradientTransform="matrix(1 0 0 -1 0 413.72)" gradientUnits="userSpaceOnUse" x1="337.18" x2="368.3" xlink:href="#m" y1="303.385" y2="303.385"/><linearGradient id="aY" gradientTransform="matrix(1 0 0 -1 0 413.72)" gradientUnits="userSpaceOnUse" x1="339.78" x2="365.68" xlink:href="#m" y1="303.05" y2="303.05"/><linearGradient id="aZ" gradientTransform="matrix(1 0 0 -1 0 413.72)" gradientUnits="userSpaceOnUse" x1="362.7679" x2="349.4042" xlink:href="#m" y1="319.7556" y2="298.5373"/><linearGradient id="a0" gradientTransform="matrix(1 0 0 -1 0 413.72)" gradientUnits="userSpaceOnUse" x1="339.76" x2="368.29" xlink:href="#m" y1="305.3" y2="305.3"/><linearGradient id="a1" gradientTransform="matrix(1 0 0 -1 0 413.72)" gradientUnits="userSpaceOnUse" x1="338.47" x2="369.59" xlink:href="#m" y1="307.8601" y2="307.8601"/><linearGradient id="a2" gradientTransform="matrix(1 0 0 -1 0 413.72)" gradientUnits="userSpaceOnUse" x1="338.48" x2="369.6" xlink:href="#m" y1="308.405" y2="308.405"/><linearGradient id="a3" gradientTransform="matrix(1 0 0 -1 0 413.72)" gradientUnits="userSpaceOnUse" x1="341.08" x2="366.98" xlink:href="#m" y1="308.07" y2="308.07"/><linearGradient id="a4" gradientTransform="matrix(1 0 0 -1 0 413.72)" gradientUnits="userSpaceOnUse" x1="362.767" x2="349.4033" xlink:href="#m" y1="324.7741" y2="303.556"/><linearGradient id="a5" gradientTransform="matrix(1 0 0 -1 0 413.72)" gradientUnits="userSpaceOnUse" x1="339.76" x2="368.29" xlink:href="#m" y1="310.325" y2="310.325"/><linearGradient id="a6" gradientTransform="matrix(1 0 0 -1 0 413.72)" gradientUnits="userSpaceOnUse" x1="338.47" x2="369.59" xlink:href="#m" y1="312.8801" y2="312.8801"/><linearGradient id="a7" gradientTransform="matrix(1 0 0 -1 0 413.72)" gradientUnits="userSpaceOnUse" x1="338.48" x2="369.6" xlink:href="#m" y1="313.425" y2="313.425"/><linearGradient id="a8" gradientTransform="matrix(1 0 0 -1 0 413.72)" gradientUnits="userSpaceOnUse" x1="341.08" x2="366.98" xlink:href="#m" y1="313.09" y2="313.09"/><linearGradient id="a9" gradientTransform="matrix(1 0 0 -1 0 413.72)" gradientUnits="userSpaceOnUse" x1="362.7662" x2="349.4025" xlink:href="#m" y1="329.7928" y2="308.5747"/><linearGradient id="ba" gradientTransform="matrix(1 0 0 -1 0 413.72)" gradientUnits="userSpaceOnUse" x1="339.76" x2="368.29" xlink:href="#m" y1="315.34" y2="315.34"/><linearGradient id="bb" gradientTransform="matrix(1 0 0 -1 0 413.72)" gradientUnits="userSpaceOnUse" x1="338.47" x2="369.59" xlink:href="#m" y1="317.9" y2="317.9"/><linearGradient id="bc" gradientTransform="matrix(1 0 0 -1 0 413.72)" gradientUnits="userSpaceOnUse" x1="338.48" x2="369.6" xlink:href="#m" y1="318.445" y2="318.445"/><linearGradient id="bd" gradientTransform="matrix(1 0 0 -1 0 413.72)" gradientUnits="userSpaceOnUse" x1="341.08" x2="366.98" xlink:href="#m" y1="318.11" y2="318.11"/><linearGradient id="be" gradientTransform="matrix(1 0 0 -1 0 413.72)" gradientUnits="userSpaceOnUse" x1="363.4237" x2="350.0602" xlink:href="#m" y1="334.8092" y2="313.5909"/><linearGradient id="bf" gradientTransform="matrix(1 0 0 -1 0 413.72)" gradientUnits="userSpaceOnUse" x1="340.42" x2="368.94" xlink:href="#m" y1="320.36" y2="320.36"/><linearGradient id="bg" gradientTransform="matrix(1 0 0 -1 0 413.72)" gradientUnits="userSpaceOnUse" x1="339.12" x2="370.24" xlink:href="#m" y1="322.92" y2="322.92"/><linearGradient id="bh" gradientTransform="matrix(1 0 0 -1 0 413.72)" gradientUnits="userSpaceOnUse" x1="339.13" x2="370.25" xlink:href="#m" y1="323.465" y2="323.465"/><linearGradient id="bi" gradientTransform="matrix(1 0 0 -1 0 413.72)" gradientUnits="userSpaceOnUse" x1="341.73" x2="367.63" xlink:href="#m" y1="323.13" y2="323.13"/><linearGradient id="bj" gradientTransform="matrix(1 0 0 -1 0 413.72)" gradientUnits="userSpaceOnUse" x1="361.5451" x2="348.1814" xlink:href="#m" y1="339.8311" y2="318.613"/><linearGradient id="bk" gradientTransform="matrix(1 0 0 -1 0 413.72)" gradientUnits="userSpaceOnUse" x1="338.54" x2="367.07" xlink:href="#m" y1="325.38" y2="325.38"/><linearGradient id="bl" gradientTransform="matrix(1 0 0 -1 0 413.72)" gradientUnits="userSpaceOnUse" x1="337.25" x2="368.37" xlink:href="#m" y1="327.94" y2="327.94"/><linearGradient id="bm" gradientTransform="matrix(1 0 0 -1 0 413.72)" gradientUnits="userSpaceOnUse" x1="337.26" x2="368.38" xlink:href="#m" y1="328.475" y2="328.475"/><linearGradient id="bn" gradientTransform="matrix(1 0 0 -1 0 413.72)" gradientUnits="userSpaceOnUse" x1="339.86" x2="365.76" xlink:href="#m" y1="328.15" y2="328.15"/><linearGradient id="bo" gradientTransform="matrix(1 0 0 -1 0 413.72)" gradientUnits="userSpaceOnUse" x1="51.6551" x2="67.8125" xlink:href="#Z" y1="141.6382" y2="21.5123"/><linearGradient id="bp" gradientTransform="matrix(1 0 0 -1 0 413.72)" gradientUnits="userSpaceOnUse" x1="57.915" x2="57.915" xlink:href="#aj" y1="129.6092" y2="80.2997"/><linearGradient id="bq" gradientTransform="matrix(1 0 0 -1 0 413.72)" gradientUnits="userSpaceOnUse" x1="15.92" x2="95.55" xlink:href="#a" y1="109.155" y2="109.155"/><linearGradient id="br" gradientTransform="matrix(1 0 0 -1 0 413.72)" gradientUnits="userSpaceOnUse" x1="20.5445" x2="94.59" xlink:href="#a" y1="130.7572" y2="130.7572"/><linearGradient id="bs" gradientTransform="matrix(1 0 0 -1 0 413.72)" gradientUnits="userSpaceOnUse" x1="268.3312" x2="271.8221" xlink:href="#k" y1="70.7523" y2="57.6615"/><linearGradient id="bt" gradientTransform="matrix(1 0 0 -1 0 413.72)" gradientUnits="userSpaceOnUse" x1="292.0362" x2="294.3634" xlink:href="#g" y1="68.8706" y2="48.216"/><linearGradient id="bu" gradientTransform="matrix(1 0 0 -1 0 413.72)" gradientUnits="userSpaceOnUse" x1="275.252" x2="349.5793" xlink:href="#k" y1="85.5672" y2="45.2763"/><linearGradient id="bv" gradientTransform="matrix(1 0 0 -1 0 413.72)" gradientUnits="userSpaceOnUse" x1="250.0966" x2="250.8571" xlink:href="#k" y1="53.8772" y2="51.0251"/><linearGradient id="bw" gradientTransform="matrix(1 0 0 -1 0 413.72)" gradientUnits="userSpaceOnUse" x1="360.2307" x2="323.1397" xlink:href="#g" y1="110.4819" y2="-38.754"/><path d="m212.6 0c-117.4 0-212.6 95.2-212.6 212.6 0 78.8 42.9 147.6 106.5 184.3h212.1c63.7-36.7 106.5-105.5 106.5-184.3 0-117.4-95.1-212.6-212.5-212.6z" fill="url(#b)"/><path d="m75.6 131.7c-.1-.7-.3-1.3-.6-1.9l3.3-4.6-2.5-2.6-2.5-2.6-5.2 2.6c-1.3-.6-2.6-.9-4.1-1.1l-2.6-4.8-7.4 1.6-.3 5.5c-1.2.8-2.3 1.7-3.2 2.7l-5.9-.2-2.4 6.7 4.9 2.9c0 .6.1 1.3.3 2 .1.7.3 1.3.6 1.9l-3.3 4.6 5 5.1 5.2-2.6c1.3.6 2.6.9 4.1 1.1l2.6 4.8 7.4-1.6.3-5.5c1.2-.8 2.3-1.7 3.2-2.7l5.9.2 1.2-3.4 1.2-3.4-4.9-2.9c0-.5-.1-1.2-.3-1.8zm-12.7 9c-3.6.8-7.1-1.3-7.8-4.6s1.6-6.6 5.2-7.4 7.1 1.3 7.8 4.6-1.7 6.6-5.2 7.4z" fill="url(#c)" opacity=".35"/><path d="m329.1 61.6c.2-.8.3-1.6.4-2.4l6-3.3-1.4-4.1-1.4-4.1-7.1.1c-1.1-1.3-2.4-2.4-3.8-3.3l-.3-6.6-8.8-2.1-3.2 5.8c-1.7.2-3.4.7-4.9 1.3l-6.3-3.3-6.1 6 3.9 5.7c-.3.7-.5 1.5-.7 2.3s-.3 1.6-.4 2.4l-6 3.3 2.8 8.1 7.1-.1c1.1 1.3 2.4 2.4 3.8 3.3l.3 6.6 8.8 2.1 3.2-5.8c1.7-.2 3.4-.7 4.9-1.3l6.3 3.3 3-3 3-3-3.9-5.7c.4-.6.7-1.4.8-2.2zm-18.5 3.2c-4.3-1-7-5-6.1-9s5.2-6.4 9.5-5.4 7 5 6.1 9c-1 4-5.2 6.4-9.5 5.4z" fill="url(#d)" opacity=".35"/><path d="m200.9 294.2c-.2-.5-.5-1-.8-1.5l2.1-4.4-2.4-1.8-2.4-1.8-4.1 2.9c-1.1-.3-2.3-.4-3.6-.4l-2.8-3.7-6 2.4.5 4.6c-.9.8-1.7 1.7-2.3 2.7l-5 .6-1.1 6 4.5 1.7c.1.5.3 1.1.5 1.6s.5 1 .8 1.5l-2.1 4.4 4.9 3.6 4.1-2.9c1.1.3 2.3.4 3.6.4l2.8 3.7 6-2.4-.5-4.6c.9-.8 1.7-1.7 2.3-2.7l5-.6.5-3 .5-3-4.5-1.7c-.2-.5-.3-1-.5-1.6zm-9.5 9.4c-2.9 1.1-6.1-.1-7.2-2.8s.4-5.8 3.3-6.9 6.1.1 7.2 2.8-.4 5.7-3.3 6.9z" fill="url(#e)" opacity=".35"/><path d="m291.1 276.8h-245.5c-6.7 0-12.1-5.4-12.1-12.1v-144.4c0-6.7 5.4-12.1 12.1-12.1h245.6c6.7 0 12.1 5.4 12.1 12.1v144.4c-.1 6.7-5.5 12.1-12.2 12.1z" fill="none" stroke="url(#f)" stroke-miterlimit="10" stroke-width="5"/><path d="m303.4 268.5s-17.1 10.1-26.1 38.1c-9 27.9-9.6 38.7-9.6 38.7l-51.2 21.8 9.3 25.9s53-14.5 60.8-20.1c7.8-5.5 16.8-104.4 16.8-104.4z" fill="url(#h)"/><path d="m333.9 260.3s-27.8 4.8-30.5 8.3c-2.8 3.4-18.8 31.6-20.9 45.2-2.5 16.5-5.3 84.9-5.3 84.9l99.6-1.3 15.5-121.4-38.1-14.7z" fill="url(#i)"/><path d="m376.5 373.2-28.4 24.4-27.2.4-27.3.4-5.4-6.1-.8-1 .4-23.6.2-12.4 6.1-25.3s4.4 2.2 9.2 4.4c4.8 2.3 9.9 4.7 10.9 5.2 2 .9-4.7-13.5-4.9-14 .6.5 19.6 16 28.5 17.7 9 1.7 30 5.5 33.2 6.7 3.1 1.1 5.5 23.2 5.5 23.2z" fill="url(#j)" opacity=".45"/><path d="m354.3 261.1-4.3-17.1c-1.7 2.4-3.5 4.4-5.1 5.8-4.5 4-8.3 7-13.9 7.6-2.3.2-5.2-.7-8.3-2.3l.6 7.2c-3.4.7-7.2 1.6-10.6 2.5-2.8 6.1-5.1 15.9 6.9 19.6 17 5.2 40.3-7.7 47.6-18.2z" fill="url(#l)"/><path d="m323.4 262.3s-12.5 23.1-17.7 50.5c-.4 2.2-.8 4.4-1.1 6.7-.2 1.8-.5 3.6-.6 5.4-.1.7-.1 1.3-.2 2-.2 2.2-.4 4.5-.5 6.7v.8c-.9 13.8-.9 27.5-.6 38 .3 11.8.9 19.7.9 19.7l-15.3.2-13.5.2s.1-10.7.8-24.8c.5-11.3 1.3-24.9 2.6-36.9.2-2.4.5-4.7.8-6.9.3-2.6.7-5.1 1.1-7.4.4-2.5.9-4.8 1.4-6.8.1-.5.2-1 .4-1.4 6.1-23.6 21.6-39.7 21.6-39.7s11-6.8 19.9-6.3z" fill="url(#n)"/><path d="m331.9 391.8-11 6.1-27.3.4-5.4-6.1-13.5.2s.1-10.7.8-24.8l6.9-1.7 5.3 1.7 14.9 4.7 10.3 3.2z" fill="url(#o)" opacity=".35"/><path d="m351.1 248.1-1-4.2c-1.7 2.4-3.5 4.4-5.1 5.8-4.5 4-8.3 7-13.9 7.6-2.3.2-5.2-.7-8.3-2.2l.3 3.6c3 2.4 7.4 5.1 11.7 5.1 5.1 0 12-9.2 16.3-15.7z" fill="url(#p)"/><path d="m392.7 274.9-7.7 40.7-1.3 6.9-1.3 6.7-1.3 6.9-10.8 56.9-35.8.9s-2.8-33.6-1.9-58.6c.1-2.3.2-4.5.3-6.6.1-1.7.3-3.4.4-4.9.1-.8.2-1.6.3-2.4.3-2.3.6-4.4.9-6.5 5.9-39 19.8-53.7 19.8-53.7 20.6 5.6 38.4 13.7 38.4 13.7z" fill="url(#q)"/><path d="m305.7 312.8c-.4 2.2-.8 4.4-1.1 6.7-8.5-.8-16.9-1.8-24.6-3 .4-2.5.9-4.8 1.4-6.8 4.9.7 13 1.9 24.3 3.1z" fill="url(#r)"/><path d="m385 315.6-1.3 6.9c-11 0-29.7-.1-50.1-1.1.3-2.3.6-4.4.9-6.5 14.3.6 31.1 1 50.5.7z" fill="url(#s)"/><path d="m303.8 326.8c-.2 2.2-.4 4.5-.5 6.7-8.6-.7-17.2-1.6-25.2-2.8.2-2.4.5-4.7.8-6.9 5.7.9 14 2 24.9 3z" fill="url(#t)"/><path d="m382.4 329.2-1.3 6.9c-9.5 0-27.9 0-48.5-.9.1-2.3.2-4.5.3-6.6 14.2.7 30.7 1 49.5.6z" fill="url(#u)"/><path d="m349 393.5 13.8-.3c3.6-3.9 6.4-8.3 6.4-8.3l8.4-52.1v-44.2s-22.7 27.9-28.5 82.3c-1.2 11.1-1 18.3-.1 22.6z" fill="url(#v)" opacity=".35"/><path d="m234 386.5-27.6-65.8-4.2 1.8 28.8 68.6h74.3v-4.6z" fill="url(#x)"/><path d="m113.8 322.5h88.4l28.8 68.6h-88.5z" fill="url(#y)"/><path d="m206.4 320.7h-89.3l-3.3 1.8h88.4z" fill="url(#z)"/><path d="m134.3 371.4 49.7-48.9h-70.2z" fill="url(#A)" opacity=".35"/><path d="m350.7 242.9s10.6-1 14.7 3c0 0-3.8-8.9-13.8-4.4z" fill="#693032"/><path d="m350 243.5s7.7 1.3 9.2 10.3c-.1 0 1.8-13.7-9.2-10.3z" fill="#693032"/><path d="m362.1 208.9s5.4 24.4-12 35.1l-3.3-35.5z" fill="#693032"/><path d="m298.1 210.9s3.4 15.1 4.5 20.2c1.1 5 2.2 11 8.1 15.8s14.8 11 20.3 10.4c5.6-.5 9.4-3.6 13.9-7.6s10.3-11.9 11.2-22.5-6.1-29.7-12.6-37.8-21.1-11-26.1-10.8-11.5 2.9-14.4 7.4c-2.9 4.6-7.2 8.1-4.9 24.9z" fill="url(#B)"/><path d="m324.7 237.2c-2.2.5-4.4.9-6.6 1.4.6-4.9 1.1-9.9 1.3-14.9.1-1.3-1.9-1.3-2 0-.3 5.4-.8 10.8-1.5 16.1-.1.7.7 1.1 1.3 1 2.7-.6 5.3-1.1 8-1.7 1.3-.3.8-2.2-.5-1.9z" fill="url(#C)"/><path d="m315.4 215.7c-.2-.6-.7-.8-1.2-.7-3.6.6-7.1 1.5-10.5 2.6-1.2.4-.7 2.3.5 1.9 3.4-1.1 7-2 10.5-2.6.5-.1.8-.7.7-1.2z" fill="#693032"/><path d="m334.7 211.8c-.2-.6-.7-.8-1.2-.7-4.1.6-8.2 1.6-12.1 3-1.2.4-.7 2.3.5 1.9 4-1.3 8-2.3 12.1-3 .5-.1.8-.7.7-1.2z" fill="#693032"/><path d="m352.5 217.6s2.6-5.8 7.1-2.2c4.4 3.6 2 15-5.6 18.6z" fill="url(#D)"/><path d="m358.5 218.6c-.5-.7-1.2-1.4-2.1-1.3-.8 0-1.5.6-1.6 1.4 0 .5.8.5.8 0s.7-.7 1.1-.5c.6.2.9.7 1.2 1.2.3.6.5 1.3.6 1.9-1.5-.3-3.2.2-3.9 1.6s-.1 3.2 1.5 3.6c1.7.4 2.8-1.4 3.1-2.8.5-1.7.3-3.7-.7-5.1zm.1 4.5c-.2 1-.7 2.5-1.8 2.6-1.2.1-1.9-1.3-1.5-2.2.5-1.3 2.1-1.6 3.4-1.4-.1.3-.1.7-.1 1z" fill="url(#E)"/><path d="m353 208.3c3.9 4.3.9 11.7-2 12s-8.4-3.1-12.3-7.4-4.7-8.1-1.9-8.3c3-.3 12.3-.7 16.2 3.7z" fill="#693032"/><path d="m325.1 246.6c-1.3 0-2.6-.1-3.8-.2-.4 0-.6-.4-.6-.7s.3-.6.7-.6c2.3.2 4.7.4 7-.1 1.9-.5 4.2-1.7 5-3.9.1-.3.5-.5.8-.4s.5.5.4.8c-.8 2.3-3 4.1-5.9 4.8-1.2.1-2.4.3-3.6.3z" fill="url(#F)"/><g fill="#693032"><path d="m332.8 222.4c.6 2.5.2 4.6-.9 4.9s-2.4-1.5-2.9-4c-.6-2.5-.2-4.6.9-4.9 1-.2 2.3 1.6 2.9 4z"/><path d="m326.4 221.1c-.1 0-.2 0-.2-.1-.2-.1-.3-.4-.2-.7.1-.1 1.4-2.4 3.9-2.9 1.3-.3 2.7 0 4.1 1l.9-.9c.2-.2.5-.2.7 0s.2.5 0 .7l-1.2 1.2c-.2.2-.5.2-.6 0-1.2-.9-2.5-1.3-3.6-1-2 .4-3.2 2.5-3.2 2.5-.2.1-.4.2-.6.2z"/><path d="m310.4 227.2c.9 2.4 2.4 4 3.4 3.6s1.1-2.6.3-4.9c-.9-2.4-2.4-4-3.4-3.6-1 .3-1.1 2.5-.3 4.9z"/><path d="m315 222.6c.1 0 .1-.1.2-.2.1-.2 0-.5-.2-.7-.1 0-2.5-1.3-4.9-.4-1.3.5-2.2 1.5-2.9 3l-1.3-.3c-.3-.1-.5.1-.6.4s.1.5.4.6l1.7.4c.2 0 .5-.1.6-.3.5-1.5 1.4-2.4 2.5-2.8 1.9-.7 4 .3 4 .3.2.1.4.1.5 0z"/></g><path d="m292.7 212.9s-3-27.7 17.9-40.6c21-12.9 49.3-.2 51 33.6 0 0-55.8 5.9-68.9 7z" fill="url(#G)"/><path d="m282.3 218s50.9-9.8 81.2-8.7v-4.2s-24.4-2.6-81.6 9.4z" fill="url(#H)"/><path d="m299 188.9 15.9-1.5s12-22.6 32.2-13.1c0 0-10.6-11.5-26.1-8.9-15.8 2.6-20.5 10.6-22 23.5z" fill="url(#I)"/><path d="m313.6 183.2-14 1.4c-.3 1.4-.5 2.8-.7 4.3l15.9-1.5s12-22.6 32.2-13.1c-19-15.4-33.4 8.9-33.4 8.9z" fill="url(#J)"/><path d="m341.3 188.9c4.9-1.6 11.5-2.2 16-1.4-1.7-3.7-3.9-6.9-6.4-9.7-6.2.2-17.1 1.4-20.5 6.3-4.8 6.9 4.8 6.7 10.9 4.8z" fill="url(#K)" opacity=".35"/><path d="m32.3 391.1h366v7.3h-366z" fill="url(#L)"/><path d="m32.3 395.3h366v3h-366z" fill="url(#N)" opacity=".45"/><path d="m258.9 161.1-88.1-1.5-92.1 1.5 92.1-19.7z" fill="url(#O)" opacity=".75"/><path d="m258.9 174-88.1-1.3-92.1 1.3 92.1-16.9z" fill="url(#P)" opacity=".75"/><path d="m258.9 148.5v-.1-.1s0-.1 0-.1 0-.1-.1-.1 0 0-.1-.1h-.1l-88.1-22.3s0 0-.1 0 0 0 0 0 0 0-.1 0l-92.2 22.3h-.1s-.1 0-.1.1c0 0-.1.1-.1.1s0 .1-.1.1 0 .1 0 .1 0 .1 0 .1v101.9c0 .3.2.5.5.5h92.1 88.1c.3 0 .5-.2.5-.5zm-162.8 101.4h-17.4v-11.8l17.4-.5zm0-13.3-17.4.5v-11.8l17.4-1zm0-13.3-17.4 1v-11.8l17.4-1.6zm0-13.2-17.4 1.6v-11.8l17.4-2.1zm0-13.3-17.4 2.1v-11.7l17.4-2.6zm0-13.3-17.4 2.6v-11.7l17.4-3.2zm0-13.3-17.4 3.2v-11.7l17.4-3.7zm0-13.3-17.4 3.7v-11.7l17.4-4.2zm18.5 93h-17.5v-12.3l17.4-.5v12.8zm0-13.8-17.4.5v-12.3l17.4-1zm0-13.9-17.4 1v-12.2l17.4-1.6zm0-13.8-17.5 1.6v-12.3l17.4-2.1v12.8zm0-13.8-17.4 2.1v-12.3l17.4-2.6zm0-13.9-17.4 2.6v-12.3l17.4-3.2zm0-13.8-17.5 3.1v-12.3l17.4-3.7v12.9zm0-13.9-17.4 3.7v-12.3l17.4-4.2zm18.4 96.9h-17.4v-12.9l17.4-.5zm0-14.4-17.4.5v-12.9l17.4-1zm0-14.4-17.4 1v-12.9l17.4-1.6zm0-14.4-17.4 1.6v-12.9l17.4-2.1zm0-14.4-17.4 2.1v-12.9l17.4-2.6zm0-14.4-17.4 2.6v-12.9l17.4-3.2zm0-14.4-17.4 3.2v-12.9l17.4-3.7zm0-14.4-17.4 3.7v-12.8l17.4-4.2zm18.4 100.8h-17.4v-13.4l17.4-.5zm0-15-17.4.5v-13.4l17.4-1zm0-14.9-17.4 1v-13.4l17.4-1.6zm0-14.9-17.4 1.6v-13.4l17.4-2.1zm0-15-17.4 2.1v-13.4l17.4-2.6zm0-15-17.4 2.6v-13.4l17.4-3.2zm0-14.9-17.4 3.2v-13.4l17.4-3.7zm0-15-17.4 3.7v-13.4l17.4-4.2zm18.4 104.7h-17.4v-14l17.4-.5zm0-15.5-17.4.5v-14l17.4-1zm0-15.5-17.4 1v-14l17.4-1.6zm0-15.5-17.4 1.6v-14l17.4-2.1zm0-15.5-17.4 2.1v-14l17.4-2.6zm0-15.5-17.4 2.6v-14l17.4-3.2zm0-15.5-17.4 3.2v-14l17.4-3.7zm0-15.5-17.4 3.7v-13.9l17.4-4.2zm17.6 108.5h-16.6v-14.5l16.6.5zm0-15-16.6-.5v-14.5l16.6 1zm0-15-16.6-1v-14.5l16.6 1.6zm0-15-16.6-1.6v-14.5l16.6 2.1zm0-14.9-16.6-2.1v-14.5l16.6 2.6zm0-15-16.6-2.6v-14.5l16.6 3.1zm0-15-16.6-3.1v-14.5l16.6 3.7zm0-15-16.6-3.7v-14.5l16.6 4.2zm17.7 104.9h-16.6v-14l16.6.5zm0-14.4-16.6-.5v-14l16.6 1zm0-14.4-16.6-1v-13.9l16.6 1.6zm0-14.5-16.6-1.6v-13.9l16.6 2.1zm0-14.4-16.6-2.1v-13.9l16.6 2.6zm0-14.4-16.6-2.6v-13.9l16.6 3.1zm0-14.4-16.6-3.1v-13.9l16.6 3.7zm0-14.5-16.6-3.7v-13.9l16.6 4.2zm17.6 101h-16.7v-13.4l16.6.5v12.9zm0-13.9-16.6-.5v-13.4l16.6 1zm0-13.8-16.6-1v-13.4l16.6 1.6zm0-13.9-16.6-1.6v-13.4l16.6 2.1zm0-13.9-16.6-2.1v-13.4l16.6 2.6zm0-13.8-16.6-2.6v-13.4l16.6 3.1zm0-13.9-16.6-3.1v-13.4l16.6 3.7zm0-13.9-16.6-3.7v-13.4l16.6 4.2zm17.6 97.1h-16.6v-12.8l16.6.5zm0-13.3-16.6-.5v-12.8l16.6 1zm0-13.3-16.6-1v-12.8l16.6 1.6zm0-13.3-16.6-1.6v-12.8l16.6 2.1zm0-13.4-16.6-2.1v-12.8l16.6 2.6zm0-13.3-16.6-2.6v-12.8l16.6 3.1zm0-13.3-16.6-3.1v-12.8l16.6 3.7zm0-13.3-16.6-3.7v-12.8l16.6 4.2zm17.6 93.2h-16.6v-12.3l16.6.5zm0-12.8-16.6-.5v-12.3l16.6 1zm0-12.7-16.6-1v-12.3l16.6 1.6zm0-12.8-16.6-1.6v-12.3l16.6 2.1zm0-12.7-16.6-2.1v-12.3l16.6 2.6zm0-12.8-16.6-2.6v-12.3l16.6 3.1zm0-12.7-16.6-3.1v-12.3l16.6 3.7zm0-12.8-16.6-3.7v-12.2l16.6 4.2z" fill="url(#Q)"/><path d="m258.4 186.7-88.1-1.1-92.1 1.1 92.1-13.9z" fill="url(#R)" opacity=".75"/><path d="m258.4 199.4-88.1-.8-92.1.8 92.1-11.1z" fill="url(#S)" opacity=".75"/><path d="m258.4 212.2-88.1-.7-92.1.7 92.1-8.4z" fill="url(#T)" opacity=".75"/><path d="m258.4 224.9h-180.2l92.1-5.6z" fill="url(#U)" opacity=".75"/><path d="m258.4 237.7h-180.2l92.1-2.8z" fill="url(#V)" opacity=".5"/><path d="m257.2 138.9c-.5 0-1-.4-1-1v-30.1c0-.6.5-1 1-1h62c.5 0 1 .4 1 1s-.5 1-1 1h-61v29.1c0 .5-.5 1-1 1z" fill="#fff"/><path d="m187.4 123.6c-.6 0-1-.4-1-1v-29.5c0-.6.4-1 1-1s1 .4 1 1v29.5c0 .5-.4 1-1 1z" fill="#fff"/><path d="m154.2 305.2h-40.4c-.6 0-1-.5-1-1s.4-1 1-1h39.4v-41.5c0-.5.4-1 1-1s1 .5 1 1v42.5c0 .6-.5 1-1 1z" fill="#fff"/><path d="m379.6 197.1v5.9h27.1v-5.9zm0 15.2h27.1v-5.9h-27.1zm0 9.4h27.1v-5.9h-27.1z" fill="url(#W)" opacity=".45"/><path d="m241.4 285.8h-21.1v5.9h21.1zm-21.2 9.4v5.9h34.2v-5.9zm0 15.3h25.4v-5.9h-25.4z" fill="url(#X)" opacity=".45"/><path d="m246.4 62.1v5.9h34.2v-5.9zm0 15.3h24.9v-5.9h-24.9z" fill="url(#Y)" opacity=".45"/><path d="m139.8 79.9v-52.5c0-5.1 4.1-9.2 9.2-9.2h76.2c5.1 0 9.2 4.1 9.2 9.2v52.5c0 5.1-4.1 9.2-9.2 9.2h-76.2c-5.1-.1-9.2-4.2-9.2-9.2z" fill="url(#aa)"/><path d="m224.6 87h-74.9c-4.3 0-7.8-3.5-7.8-7.8v-51.1c0-4.3 3.5-7.8 7.8-7.8h74.9c4.3 0 7.8 3.5 7.8 7.8v51.2c0 4.2-3.5 7.7-7.8 7.7z" fill="#fff"/><path d="m166.1 28.8 12.5-2.4v52.3h-12.5z" fill="url(#ab)"/><path d="m191.1 33.1-12.5-6.7v52.3l12.5.7z" fill="url(#ac)"/><path d="m190.3 37.1v32.5l-10.4-1.8v-36.2z" fill="url(#ad)"/><path d="m188.3 36-.2-.1v33.3h.2zm-2.1-1.1-.2-.1v34h.2zm-4.2-2.2-.2-.1v35.6h.2zm2.1 1.1-.2-.1v34.8h.2z" fill="url(#ae)" opacity=".45"/><path d="m167.2 49.8v28.8h-11.7v-26.7z" fill="url(#af)"/><path d="m167.2 49.8v28.8h5.9v-25.8z" fill="url(#ag)"/><path d="m220.1 73.2-3.1 2.5-18.5-22.2 3.1-2.6z" fill="url(#ah)"/><path d="m180.9 29.4c-6.8 5.6-7.7 15.7-2.1 22.4 5.6 6.8 15.7 7.7 22.4 2.1 6.8-5.6 7.7-15.7 2.1-22.4-5.6-6.8-15.7-7.7-22.4-2.1zm18.3 22.1c-5.4 4.5-13.5 3.8-18-1.6s-3.8-13.5 1.6-18 13.5-3.8 18 1.6c4.6 5.4 3.8 13.5-1.6 18z" fill="url(#ai)"/><path d="m180.9 29.4c-6.8 5.6-7.7 15.7-2.1 22.4.2.2.4.4.6.7-5-6.7-4-16.3 2.6-21.7 6.5-5.4 16.1-4.8 21.9 1.4-.2-.2-.3-.5-.5-.7-5.7-6.8-15.8-7.7-22.5-2.1z" fill="url(#ak)" opacity=".45"/><path d="m222.3 78.8-.4.3c-1.6 1.3-4 1.1-5.3-.5l-12.6-15.1c-.6-.8-.5-1.9.2-2.6l3.4-2.8c.8-.6 1.9-.5 2.6.2l12.6 15.2c1.3 1.6 1.1 4-.5 5.3z" fill="url(#al)"/><circle cx="191.1" cy="41.7" fill="url(#am)" opacity=".35" r="12.8"/><path d="m182.9 31.9c-5.4 4.5-6.1 12.6-1.6 18 1.9 2.3 4.4 3.7 7.1 4.3l5.6-24.9c-3.8-.9-7.9-.1-11.1 2.6z" fill="url(#an)" opacity=".35"/><path d="m326.9 133.1v-52.5c0-5.1 4.1-9.2 9.2-9.2h76.2c5.1 0 9.2 4.1 9.2 9.2v52.5c0 5.1-4.1 9.2-9.2 9.2h-76.2c-5.1-.1-9.2-4.2-9.2-9.2z" fill="url(#ao)"/><path d="m411.7 140.2h-74.9c-4.3 0-7.8-3.5-7.8-7.8v-51.1c0-4.3 3.5-7.8 7.8-7.8h74.9c4.3 0 7.8 3.5 7.8 7.8v51.2c0 4.2-3.5 7.7-7.8 7.7z" fill="#fff"/><path d="m407.9 109.6-49.3 15.2-8.4-27.4 49.3-15.1z" fill="url(#ap)"/><path d="m398.2 88c-1.1.3-2.3-.3-2.6-1.4-.1-.3-.1-.6-.1-1l-40.1 12.3c.2.2.4.5.5.8.3 1.1-.3 2.3-1.4 2.6-.3.1-.6.1-1 .1l5.5 18.1c.2-.2.5-.4.8-.5 1.1-.3 2.3.3 2.6 1.4.1.3.1.6.1 1l40.1-12.3c-.2-.2-.4-.5-.5-.8-.3-1.1.3-2.3 1.4-2.6.3-.1.6-.1 1-.1l-5.5-18.1c-.2.2-.5.4-.8.5z" fill="url(#aq)" opacity=".45"/><path d="m386.7 101.2c1.3 4.2-1.1 8.7-5.3 10s-8.7-1.1-10-5.3 1.1-8.7 5.3-10 8.7 1.1 10 5.3z" fill="url(#ar)"/><path d="m358.6 96.2h51.6v28.6h-51.6z" fill="url(#as)"/><path d="m407.2 101.2c-1.2 0-2.1-.9-2.1-2.1 0-.3.1-.6.2-.9h-42c.1.3.2.6.2.9 0 1.2-1 2.1-2.1 2.1-.3 0-.6-.1-.9-.2v18.9c.3-.1.6-.2.9-.2 1.2 0 2.1.9 2.1 2.1 0 .3-.1.6-.2.9h42c-.1-.3-.2-.6-.2-.9 0-1.2 1-2.1 2.1-2.1.3 0 .6.1.9.2v-18.9c-.2.1-.5.2-.9.2z" fill="url(#at)" opacity=".45"/><circle cx="384.4" cy="110.5" fill="url(#au)" r="8"/><path d="m371.6 120.9v4c0 .6 7 1.2 15.6 1.2s15.6-.5 15.6-1.2v-4z" fill="url(#av)"/><path d="m381.4 125.9h.2v-5.1h-.2zm2.8.1h.2v-5.1h-.2zm-8.5-.3h.2v-4.8h-.2zm-2.8-.4h.2v-4.4h-.2zm5.6.5h.2v-4.9h-.2zm14.2.2h.2v-5h-.2zm-5.7 0c.1 0 .1 0 0 0h.2v-5.1h-.2zm14.2-5.1v4.4h.2v-4.4zm-2.8 4.8h.2v-4.8h-.2zm-2.9.2h.2v-4.9h-.2zm-5.6.1h.2v-5.1h-.2z" fill="url(#aw)" opacity=".45"/><ellipse cx="387.1" cy="120.9" fill="url(#ax)" rx="15.6" ry="1.2"/><path d="m387.1 119.9c8.3 0 15 .5 15.5 1.1v-.1c0-.6-7-1.2-15.6-1.2s-15.6.5-15.6 1.2v.1c.7-.6 7.4-1.1 15.7-1.1z" fill="url(#ay)"/><ellipse cx="387.1" cy="120.7" fill="url(#az)" opacity=".45" rx="13" ry=".6"/><path d="m380.1 124.3v4c0 .6 7 1.2 15.6 1.2s15.6-.5 15.6-1.2v-4z" fill="url(#aA)"/><path d="m390 129.4h.2v-5.1h-.2zm2.8 0h.2v-5.1h-.2zm-8.5-.3h.2v-4.8h-.2zm-2.9-.3h.2v-4.4h-.2zm5.7.5h.2v-4.9h-.2zm14.2.1h.2v-5h-.2zm-5.7.1c.1 0 .1 0 0 0h.2v-5.1h-.2zm14.2-5.2v4.4h.2v-4.4zm-2.8 4.8h.2v-4.8h-.2zm-2.9.2h.2v-4.9h-.2zm-5.6.1h.2v-5.1h-.2z" fill="url(#aB)" opacity=".45"/><ellipse cx="395.7" cy="124.3" fill="url(#aC)" rx="15.6" ry="1.2"/><path d="m395.7 123.3c8.3 0 15 .5 15.5 1.1v-.1c0-.6-7-1.2-15.6-1.2s-15.6.5-15.6 1.2v.1c.7-.6 7.4-1.1 15.7-1.1z" fill="url(#aD)"/><ellipse cx="395.7" cy="124.1" fill="url(#aE)" opacity=".45" rx="13" ry=".6"/><path d="m338.5 125.9v4c0 .6 7 1.2 15.6 1.2s15.6-.5 15.6-1.2v-4z" fill="url(#aF)"/><path d="m348.3 131h.2v-5.1h-.2zm2.8 0h.2v-5.1h-.2zm-8.5-.3h.2v-4.8h-.2zm-2.8-.3h.2v-4.4h-.2zm5.6.5h.2v-4.9h-.2zm14.2.1h.2v-5h-.2zm-5.7.1c.1 0 .1 0 0 0h.2v-5.1h-.2zm14.2-5.2v4.4h.2v-4.4zm-2.8 4.8h.2v-4.8h-.2zm-2.8.2h.2v-4.9h-.2zm-5.7.1h.2v-5.1h-.2z" fill="url(#aG)" opacity=".45"/><ellipse cx="354" cy="125.9" fill="url(#aH)" rx="15.6" ry="1.2"/><path d="m354 124.9c8.3 0 15 .5 15.5 1.1v-.1c0-.6-7-1.2-15.6-1.2s-15.6.5-15.6 1.2v.1c.7-.6 7.4-1.1 15.7-1.1z" fill="url(#aI)"/><ellipse cx="354" cy="125.7" fill="url(#aJ)" opacity=".45" rx="13" ry=".6"/><path d="m338.5 120.9v4c0 .6 7 1.2 15.6 1.2s15.6-.5 15.6-1.2v-4z" fill="url(#aK)"/><path d="m348.3 125.9h.2v-5.1h-.2zm2.8.1h.2v-5.1h-.2zm-8.5-.3h.2v-4.8h-.2zm-2.8-.4h.2v-4.4h-.2zm5.6.5h.2v-4.9h-.2zm14.2.2h.2v-5h-.2zm-5.7 0c.1 0 .1 0 0 0h.2v-5.1h-.2zm14.2-5.1v4.4h.2v-4.4zm-2.8 4.8h.2v-4.8h-.2zm-2.8.2h.2v-4.9h-.2zm-5.7.1h.2v-5.1h-.2z" fill="url(#aL)" opacity=".45"/><ellipse cx="354" cy="120.9" fill="url(#aM)" rx="15.6" ry="1.2"/><path d="m354 119.9c8.3 0 15 .5 15.5 1.1v-.1c0-.6-7-1.2-15.6-1.2s-15.6.5-15.6 1.2v.1c.7-.6 7.4-1.1 15.7-1.1z" fill="url(#aN)"/><ellipse cx="354" cy="120.7" fill="url(#aO)" opacity=".45" rx="13" ry=".6"/><path d="m338.5 115.9v4c0 .6 7 1.2 15.6 1.2s15.6-.5 15.6-1.2v-4z" fill="url(#aP)"/><path d="m348.3 120.9h.2v-5.1h-.2zm2.8.1h.2v-5.1h-.2zm-8.5-.4h.2v-4.8h-.2zm-2.8-.3h.2v-4.4h-.2zm5.6.5h.2v-4.9h-.2zm14.2.1h.2v-5h-.2zm-5.7.1c.1 0 .1 0 0 0h.2v-5.1h-.2zm14.2-5.1v4.4h.2v-4.4zm-2.8 4.8h.2v-4.8h-.2zm-2.8.1h.2v-4.9h-.2zm-5.7.2h.2v-5.1h-.2z" fill="url(#aQ)" opacity=".45"/><path d="m369.6 115.9c0 .6-7 1.2-15.6 1.2s-15.6-.5-15.6-1.2 7-1.2 15.6-1.2 15.6.5 15.6 1.2z" fill="url(#aR)"/><path d="m354 114.9c8.3 0 15 .5 15.5 1.1v-.1c0-.6-7-1.2-15.6-1.2s-15.6.5-15.6 1.2v.1c.7-.6 7.4-1.1 15.7-1.1z" fill="url(#aS)"/><ellipse cx="354" cy="115.7" fill="url(#aT)" opacity=".45" rx="13" ry=".6"/><path d="m337.2 110.9v4c0 .6 7 1.2 15.6 1.2s15.6-.5 15.6-1.2v-4z" fill="url(#aU)"/><path d="m347 115.9h.2v-5.1h-.2zm2.8.1h.2v-5.1h-.2zm-8.5-.4h.2v-4.8h-.2zm-2.8-.3h.2v-4.4h-.2zm5.6.5h.2v-4.9h-.2zm14.2.1h.2v-5h-.2zm-5.7.1c.1 0 .1 0 0 0h.2v-5.1h-.2zm14.2-5.1v4.4h.2v-4.4zm-2.8 4.7h.2v-4.8h-.2zm-2.9.2h.2v-4.9h-.2zm-5.6.2h.2v-5.1h-.2z" fill="url(#aV)" opacity=".45"/><path d="m368.3 110.9c0 .6-7 1.2-15.6 1.2s-15.6-.5-15.6-1.2 7-1.2 15.6-1.2 15.6.5 15.6 1.2z" fill="url(#aW)"/><path d="m352.7 109.9c8.3 0 15 .5 15.5 1.1v-.1c0-.6-7-1.2-15.6-1.2s-15.6.5-15.6 1.2v.1c.7-.7 7.4-1.1 15.7-1.1z" fill="url(#aX)"/><ellipse cx="352.7" cy="110.7" fill="url(#aY)" opacity=".45" rx="13" ry=".6"/><path d="m338.5 105.9v4c0 .6 7 1.2 15.6 1.2s15.6-.5 15.6-1.2v-4z" fill="url(#aZ)"/><path d="m348.3 110.9h.2v-5h-.2zm2.8.1h.2v-5.1h-.2zm-8.5-.4h.2v-4.8h-.2zm-2.8-.3h.2v-4.4h-.2zm5.6.5h.2v-4.9h-.2zm14.2.1h.2v-5h-.2zm-5.7.1c.1 0 .1 0 0 0h.2v-5.1h-.2zm14.2-5.1v4.4h.2v-4.4zm-2.8 4.7h.2v-4.8h-.2zm-2.8.2h.2v-4.9h-.2zm-5.7.2h.2v-5.1h-.2z" fill="url(#a0)" opacity=".45"/><path d="m369.6 105.9c0 .6-7 1.2-15.6 1.2s-15.6-.5-15.6-1.2 7-1.2 15.6-1.2 15.6.5 15.6 1.2z" fill="url(#a1)"/><path d="m354 104.8c8.3 0 15 .5 15.5 1.1v-.1c0-.6-7-1.2-15.6-1.2s-15.6.5-15.6 1.2v.1c.7-.6 7.4-1.1 15.7-1.1z" fill="url(#a2)"/><ellipse cx="354" cy="105.6" fill="url(#a3)" opacity=".45" rx="13" ry=".6"/><path d="m338.5 100.8v4c0 .6 7 1.2 15.6 1.2s15.6-.5 15.6-1.2v-4z" fill="url(#a4)"/><path d="m348.3 105.9h.2v-5.1h-.2zm2.8 0h.2v-5.1h-.2zm-8.5-.3h.2v-4.8h-.2zm-2.8-.3h.2v-4.4h-.2zm5.6.5h.2v-4.9h-.2zm14.2.1h.2v-5h-.2zm-5.7.1c.1 0 .1 0 0 0h.2v-5.1h-.2zm14.2-5.2v4.4h.2v-4.4zm-2.8 4.8h.2v-4.8h-.2zm-2.8.2h.2v-4.9h-.2zm-5.7.1h.2v-5.1h-.2z" fill="url(#a5)" opacity=".45"/><path d="m369.6 100.8c0 .6-7 1.2-15.6 1.2s-15.6-.5-15.6-1.2 7-1.2 15.6-1.2c8.6.1 15.6.6 15.6 1.2z" fill="url(#a6)"/><path d="m354 99.8c8.3 0 15 .5 15.5 1.1v-.1c0-.6-7-1.2-15.6-1.2s-15.6.5-15.6 1.2v.1c.7-.6 7.4-1.1 15.7-1.1z" fill="url(#a7)"/><ellipse cx="354" cy="100.6" fill="url(#a8)" opacity=".45" rx="13" ry=".6"/><path d="m338.5 95.8v4c0 .6 7 1.2 15.6 1.2s15.6-.5 15.6-1.2v-4z" fill="url(#a9)"/><path d="m348.3 100.9h.2v-5.1h-.2zm2.8 0h.2v-5.1h-.2zm-8.5-.3h.2v-4.8h-.2zm-2.8-.4h.2v-4.4h-.2zm5.6.6h.2v-4.9h-.2zm14.2.1h.2v-5h-.2zm-5.7 0c.1 0 .1 0 0 0h.2v-5.1h-.2zm14.2-5.1v4.4h.2v-4.4zm-2.8 4.8h.2v-4.8h-.2zm-2.8.2h.2v-4.9h-.2zm-5.7.1h.2v-5.1h-.2z" fill="url(#ba)" opacity=".45"/><ellipse cx="354" cy="95.8" fill="url(#bb)" rx="15.6" ry="1.2"/><path d="m354 94.8c8.3 0 15 .5 15.5 1.1v-.1c0-.6-7-1.2-15.6-1.2s-15.6.5-15.6 1.2v.1c.7-.6 7.4-1.1 15.7-1.1z" fill="url(#bc)"/><ellipse cx="354" cy="95.6" fill="url(#bd)" opacity=".45" rx="13" ry=".6"/><path d="m339.1 90.8v4c0 .6 7 1.2 15.6 1.2s15.6-.5 15.6-1.2v-4z" fill="url(#be)"/><path d="m348.9 95.9h.2v-5.1h-.2zm2.9 0h.2v-5.1h-.2zm-8.6-.3h.2v-4.8h-.2zm-2.8-.4h.2v-4.4h-.2zm5.7.5h.2v-4.9h-.2zm14.2.2h.2v-5h-.2zm-5.7 0h.2v-5.1h-.2zm14.2-5.1v4.4h.2v-4.4zm-2.9 4.8h.2v-4.8h-.2zm-2.8.1h.2v-4.9h-.2zm-5.7.2h.2v-5.1h-.2z" fill="url(#bf)" opacity=".45"/><path d="m370.2 90.8c0 .6-7 1.2-15.6 1.2s-15.6-.5-15.6-1.2 7-1.2 15.6-1.2c8.7 0 15.6.6 15.6 1.2z" fill="url(#bg)"/><path d="m354.7 89.8c8.3 0 15 .5 15.5 1.1v-.1c0-.6-7-1.2-15.6-1.2s-15.6.5-15.6 1.2v.1c.6-.6 7.4-1.1 15.7-1.1z" fill="url(#bh)"/><ellipse cx="354.7" cy="90.6" fill="url(#bi)" opacity=".45" rx="13" ry=".6"/><path d="m337.2 85.8v4c0 .6 7 1.2 15.6 1.2s15.6-.5 15.6-1.2v-4z" fill="url(#bj)"/><path d="m347.1 90.8h.2v-5.1h-.2zm2.8.1h.2v-5.1h-.2zm-8.5-.4h.2v-4.8h-.2zm-2.9-.3h.2v-4.4h-.2zm5.7.5h.2v-4.9h-.2zm14.2.1h.2v-5h-.2zm-5.7.1c.1 0 .1 0 0 0h.2v-5.1h-.2zm14.2-5.1v4.4h.2v-4.4zm-2.8 4.8h.2v-4.8h-.2zm-2.9.1h.2v-4.9h-.2zm-5.6.2h.2v-5.1h-.2z" fill="url(#bk)" opacity=".45"/><path d="m368.4 85.8c0 .6-7 1.2-15.6 1.2s-15.6-.5-15.6-1.2 7-1.2 15.6-1.2 15.6.5 15.6 1.2z" fill="url(#bl)"/><path d="m352.8 84.8c8.3 0 15 .5 15.5 1.1v-.1c0-.6-7-1.2-15.6-1.2s-15.6.5-15.6 1.2v.1c.7-.7 7.4-1.1 15.7-1.1z" fill="url(#bm)"/><ellipse cx="352.8" cy="85.6" fill="url(#bn)" opacity=".45" rx="13" ry=".6"/><path d="m3.6 331.9v-59.6c0-5.1 4.1-9.2 9.2-9.2h85.8c5.1 0 9.2 4.1 9.2 9.2v59.6c0 5.1-4.1 9.2-9.2 9.2h-85.8c-5.1-.1-9.2-4.2-9.2-9.2z" fill="url(#bo)"/><path d="m97.7 338.8h-84c-4.3 0-7.8-3.5-7.8-7.8v-57.9c0-4.3 3.5-7.8 7.8-7.8h84.1c4.3 0 7.8 3.5 7.8 7.8v57.9c-.1 4.3-3.6 7.8-7.9 7.8z" fill="#fff"/><path d="m23.6 331.8h9v-34.6h-9zm14.9 0h8.9v-38.7h-8.9zm14.9 0h8.9v-42.9h-8.9zm15 0h8.9v-47h-8.9zm14.9-51.2v51.2h9v-51.2z" fill="url(#bp)"/><path d="m95.6 332.3h-79.7v-55.4h1v54.4h78.7z" fill="url(#bq)"/><path d="m94.6 272.5-7.5-1.5.8 2.4-67.1 20.9c-.2.1-.3.3-.3.5.1.2.3.3.5.3l67.6-19.3.9 2.6z" fill="url(#br)"/><path d="m279.1 355.2-16.2-8.6s-1.2 3.8 1 6.4c2.3 2.5 15.2 2.2 15.2 2.2z" fill="url(#bs)"/><path d="m291.1 382s-3.4-2.8-.2-12.7 9-8.4 9.2-7.7c.1.7 0 11.5 0 11.5z" fill="url(#bt)"/><path d="m362.9 327.8-10 42.3-80.9-16.9-13.1-2.6c-1-.2-2 0-2.8.5l-9 5.8c-.7.5-1.2 1.2-1.3 2.1l-1.1 7.9-4.9 6.9s1.4 1.5 4.1 1.5 6.2-5.7 6.2-5.7l2.8-1.8c-.9 2-5.2 10.3-5.2 10.3s3.3 1.2 5.2.7 5.2-7.7 5.2-7.7l7.2-4.5 5-.2-5.3 4.8-7.6 6.9c-.7.7-.8 1.8-.2 2.5.5.6 1.4.8 2.2.4l10.4-5.2 11.5-3.6c6 1.6 12 1.1 12 1.1s65 37.9 71.2 37.6 10.7-9.3 20.3-37.5 13.1-44 13.1-44z" fill="url(#bu)"/><path d="m251.5 366.2c-.4.3-5.2 5-5.8 5.7-.4.5-2.9 2-4.5 2.9.7.3 1.6.6 2.8.6 2.8 0 6.2-5.7 6.2-5.7l2.8-1.8 10.5-6.4c-.1.1-11.6 4.5-12 4.7zm-1.3-5.2c.7-.4 9.6-4.4 9.6-4.4l-11 3.4-3.2 1.7-.7 5.3c-.1 0 4.6-5.6 5.3-6z" fill="url(#bv)" opacity=".45"/><path d="m297.5 358.6 55.5 11.6s9.2-47.5 14.3-60.8 15.1-33.9 25.1-33.4 16.8 21.4 9.4 58.7-27.3 70.2-30.3 73.8c-3 3.5-7.6 5.7-21.2-.6-13.5-6.3-59.1-25.8-59.1-25.8s8-5.9 6.3-23.5z" fill="url(#bw)"/></svg>